<svg xmlns="http://www.w3.org/2000/svg" xmlns:xlink="http://www.w3.org/1999/xlink" width="56" height="56" version="1.1" viewBox="0 0 56 56"><title>ETC</title><desc>Created with Sketch.</desc><g id="Page-1" fill="none" fill-rule="evenodd" stroke="none" stroke-width="1"><g id="ethereum-classic"><g id="ETC"><rect id="Rectangle-1" width="56" height="56" x="0" y="0" fill="#21A313" rx="28"/><g id="Page-1" transform="translate(27.875000, 28.000000) scale(-1, 1) translate(-27.875000, -28.000000) translate(16.000000, 9.000000)"><polygon id="Fill-1" fill="#A2E9A7" points="11.871 0 11.612 .866 11.612 25.987 11.871 26.241 23.743 19.348"/><polygon id="Fill-2" fill="#DFFFE2" points="11.871 0 0 19.348 11.871 26.241 11.871 14.048"/><polygon id="Fill-3" fill="#A2E9A7" points="11.871 28.449 11.725 28.624 11.725 37.572 11.871 37.991 23.75 21.559"/><polygon id="Fill-4" fill="#DFFFE2" points="11.871 37.991 11.871 28.449 0 21.559"/><polygon id="Fill-5" fill="#72CF79" points="11.871 26.241 23.743 19.348 11.871 14.048"/><polygon id="Fill-6" fill="#A2E9A7" points="0 19.348 11.871 26.241 11.871 14.048"/></g></g></g></g></svg>